<svg xmlns="http://www.w3.org/2000/svg" xmlns:xlink="http://www.w3.org/1999/xlink" width="232" zoomAndPan="magnify" viewBox="0 0 174 50.999998" height="68" preserveAspectRatio="xMidYMid meet" version="1.0"><defs><g/></defs><g fill="#ffffff" fill-opacity="1"><g transform="translate(0.636033, 39.14988)"><g><path d="M 20.25 0 L 10.0625 -13.390625 L 10.0625 0 L 2.671875 0 L 2.671875 -30.3125 L 10.0625 -30.3125 L 10.0625 -17.015625 L 20.171875 -30.3125 L 28.84375 -30.3125 L 17.109375 -15.46875 L 29.28125 0 Z M 20.25 0 "/></g></g></g><g fill="#ffffff" fill-opacity="1"><g transform="translate(30.722672, 39.14988)"><g><path d="M 10.0625 -5.703125 L 19.734375 -5.703125 L 19.734375 0 L 2.671875 0 L 2.671875 -30.3125 L 10.0625 -30.3125 Z M 10.0625 -5.703125 "/></g></g></g><g fill="#ffffff" fill-opacity="1"><g transform="translate(51.312817, 39.14988)"><g><path d="M 22.421875 -30.3125 L 22.421875 -24.40625 L 10.0625 -24.40625 L 10.0625 -18.015625 L 19.3125 -18.015625 L 19.3125 -12.265625 L 10.0625 -12.265625 L 10.0625 0 L 2.671875 0 L 2.671875 -30.3125 Z M 22.421875 -30.3125 "/></g></g></g><g fill="#ffffff" fill-opacity="1"><g transform="translate(74.924568, 39.14988)"><g/></g></g><g fill="#ffffff" fill-opacity="1"><g transform="translate(84.07574, 39.14988)"><g><path d="M 13.640625 0.296875 C 11.429688 0.296875 9.445312 -0.0625 7.6875 -0.78125 C 5.925781 -1.5 4.519531 -2.5625 3.46875 -3.96875 C 2.425781 -5.382812 1.875 -7.082031 1.8125 -9.0625 L 9.671875 -9.0625 C 9.785156 -7.945312 10.171875 -7.09375 10.828125 -6.5 C 11.492188 -5.90625 12.363281 -5.609375 13.4375 -5.609375 C 14.53125 -5.609375 15.390625 -5.859375 16.015625 -6.359375 C 16.648438 -6.867188 16.96875 -7.570312 16.96875 -8.46875 C 16.96875 -9.21875 16.71875 -9.835938 16.21875 -10.328125 C 15.71875 -10.816406 15.097656 -11.21875 14.359375 -11.53125 C 13.628906 -11.84375 12.585938 -12.203125 11.234375 -12.609375 C 9.273438 -13.210938 7.675781 -13.816406 6.4375 -14.421875 C 5.195312 -15.023438 4.128906 -15.914062 3.234375 -17.09375 C 2.347656 -18.28125 1.90625 -19.820312 1.90625 -21.71875 C 1.90625 -24.539062 2.925781 -26.75 4.96875 -28.34375 C 7.007812 -29.945312 9.671875 -30.75 12.953125 -30.75 C 16.296875 -30.75 18.988281 -29.945312 21.03125 -28.34375 C 23.070312 -26.75 24.164062 -24.53125 24.3125 -21.6875 L 16.328125 -21.6875 C 16.265625 -22.664062 15.898438 -23.429688 15.234375 -23.984375 C 14.578125 -24.546875 13.734375 -24.828125 12.703125 -24.828125 C 11.804688 -24.828125 11.082031 -24.585938 10.53125 -24.109375 C 9.988281 -23.640625 9.71875 -22.957031 9.71875 -22.0625 C 9.71875 -21.082031 10.175781 -20.316406 11.09375 -19.765625 C 12.019531 -19.222656 13.460938 -18.640625 15.421875 -18.015625 C 17.378906 -17.347656 18.96875 -16.710938 20.1875 -16.109375 C 21.414062 -15.503906 22.472656 -14.625 23.359375 -13.46875 C 24.253906 -12.320312 24.703125 -10.84375 24.703125 -9.03125 C 24.703125 -7.300781 24.257812 -5.726562 23.375 -4.3125 C 22.5 -2.90625 21.226562 -1.785156 19.5625 -0.953125 C 17.894531 -0.117188 15.921875 0.296875 13.640625 0.296875 Z M 13.640625 0.296875 "/></g></g></g><g fill="#ffffff" fill-opacity="1"><g transform="translate(110.622779, 39.14988)"><g><path d="M 22.796875 -20.734375 C 22.253906 -21.734375 21.472656 -22.5 20.453125 -23.03125 C 19.429688 -23.570312 18.226562 -23.84375 16.84375 -23.84375 C 14.457031 -23.84375 12.539062 -23.054688 11.09375 -21.484375 C 9.65625 -19.910156 8.9375 -17.816406 8.9375 -15.203125 C 8.9375 -12.410156 9.691406 -10.226562 11.203125 -8.65625 C 12.710938 -7.09375 14.796875 -6.3125 17.453125 -6.3125 C 19.265625 -6.3125 20.796875 -6.769531 22.046875 -7.6875 C 23.296875 -8.601562 24.210938 -9.925781 24.796875 -11.65625 L 15.421875 -11.65625 L 15.421875 -17.109375 L 31.484375 -17.109375 L 31.484375 -10.234375 C 30.929688 -8.390625 30 -6.675781 28.6875 -5.09375 C 27.382812 -3.507812 25.722656 -2.226562 23.703125 -1.25 C 21.691406 -0.269531 19.421875 0.21875 16.890625 0.21875 C 13.890625 0.21875 11.21875 -0.4375 8.875 -1.75 C 6.53125 -3.0625 4.703125 -4.878906 3.390625 -7.203125 C 2.078125 -9.535156 1.421875 -12.203125 1.421875 -15.203125 C 1.421875 -18.191406 2.078125 -20.859375 3.390625 -23.203125 C 4.703125 -25.554688 6.523438 -27.382812 8.859375 -28.6875 C 11.191406 -30 13.851562 -30.65625 16.84375 -30.65625 C 20.46875 -30.65625 23.523438 -29.773438 26.015625 -28.015625 C 28.503906 -26.265625 30.15625 -23.835938 30.96875 -20.734375 Z M 22.796875 -20.734375 "/></g></g></g><g fill="#ffffff" fill-opacity="1"><g transform="translate(143.515213, 39.14988)"><g><path d="M 9.9375 -30.3125 L 9.9375 -12.171875 C 9.9375 -10.359375 10.378906 -8.960938 11.265625 -7.984375 C 12.160156 -7.003906 13.472656 -6.515625 15.203125 -6.515625 C 16.929688 -6.515625 18.253906 -7.003906 19.171875 -7.984375 C 20.097656 -8.960938 20.5625 -10.359375 20.5625 -12.171875 L 20.5625 -30.3125 L 27.9375 -30.3125 L 27.9375 -12.21875 C 27.9375 -9.507812 27.359375 -7.21875 26.203125 -5.34375 C 25.054688 -3.476562 23.507812 -2.070312 21.5625 -1.125 C 19.625 -0.175781 17.460938 0.296875 15.078125 0.296875 C 12.679688 0.296875 10.539062 -0.164062 8.65625 -1.09375 C 6.769531 -2.03125 5.28125 -3.441406 4.1875 -5.328125 C 3.09375 -7.210938 2.546875 -9.507812 2.546875 -12.21875 L 2.546875 -30.3125 Z M 9.9375 -30.3125 "/></g></g></g></svg>